<?xml version="1.0" encoding="UTF-8"?>
<svg xmlns="http://www.w3.org/2000/svg" width="183" height="197">
  <path stroke="#000" stroke-width="1.38" d="M 27.666518,24.451438 L 21.933582,40.009368 C 21.933582,40.009368 22.18174,39.852368 22.379253,39.725762 C 22.576765,39.59914 22.485605,39.639663 22.723634,39.502921 C 22.961662,39.366178 23.098401,39.295276 23.331365,39.178799 C 23.564329,39.062314 23.483297,39.107897 23.655489,39.036996 C 23.82768,38.966094 23.807422,38.981283 24.020128,38.895193 C 24.232834,38.809094 24.268285,38.783776 24.506313,38.692609 C 24.744341,38.60145 24.703826,38.60145 24.972241,38.530548 C 25.240655,38.459654 25.316622,38.464707 25.579973,38.40901 C 25.843323,38.353298 25.772422,38.34823 26.025643,38.307714 C 26.278865,38.267199 26.314315,38.277328 26.592859,38.246941 C 26.871402,38.216555 26.881531,38.196297 27.139817,38.186169 C 27.398103,38.17604 27.357588,38.201366 27.626002,38.206426 C 27.894417,38.211487 27.975448,38.201366 28.213477,38.206426 C 28.451506,38.211487 28.395796,38.211487 28.578115,38.226692 C 28.760436,38.241881 28.735113,38.241881 28.942755,38.267199 C 29.150397,38.292525 29.130139,38.282388 29.408682,38.327972 C 29.687226,38.373548 29.834095,38.388753 30.05693,38.449518 C 30.279765,38.51029 30.568437,38.576132 30.948269,38.712874 C 31.328102,38.849609 31.307845,38.869866 31.57626,38.996473 C 31.844674,39.123087 31.788965,39.112958 32.021928,39.219314 C 32.254892,39.325662 32.270086,39.330731 32.508115,39.462406 C 32.746143,39.59408 32.756271,39.604208 32.974042,39.746012 C 33.191812,39.887822 33.379197,39.989103 33.379197,39.989103 L 27.666518,24.451438 z"/>
  <g font-size="18" font-family="Times, serif">
    <text x="16.39" y="18.37">Im</text>
    <text x="153.42" y="175.93">Re</text>
    <text x="7.65" y="66.49" font-style="italic">b</text>
    <text x="88.54" y="50.59" font-style="italic">a<tspan font-style="normal">+</tspan>bi</text>
    <text x="92.11" y="189.84" font-style="italic">a</text>
    <text x="11.31" y="187.26">0</text>
  </g>
  <path fill="none" stroke="#000" stroke-width="1.94" d="M 27.360117,60.457798 L 100.62309,60.457798 L 100.62309,168.80986" stroke-dasharray="11.63 3.88"/>
  <path fill="#0081cd" stroke="#0081cd" stroke-width="3.88" d="M 105.03402 432.99438 A 9.150691 9.9464035 0 1 1 86.73264,432.99438 A 9.150691 9.9464035 0 1 1 105.03402 432.99438 z" transform="matrix(.48032 0 0 .42284 53.762 -121.88)"/>
  <path fill="none" stroke="#000" stroke-width="1.75" d="M 1.2114761,169.19545 L 137.73335,169.19545"/>
  <path fill="none" stroke="#000" stroke-width="1.75" d="M 27.3027,195.82218 L 27.803129,31.866382"/>
  <path fill="#0081cd" stroke="#0081cd" stroke-width="3.75" d="M 27.113063,169.0762 C 97.259061,64.178971 97.259061,64.178971 97.259061,64.178971"/>
  <path fill="#0081cd" stroke="#0081cd" stroke-width="1.75" d="M 99.484081,61.034494 L 82.773141,73.735011 C 82.773141,73.735011 83.144871,73.736431 83.441871,73.735771 C 83.738861,73.735131 83.613981,73.716311 83.961101,73.732461 C 84.308231,73.748581 84.502441,73.766001 84.830371,73.800301 C 85.158311,73.834601 85.040791,73.828081 85.272821,73.869631 C 85.504891,73.911211 85.472901,73.913641 85.758541,73.966581 C 86.044141,74.019521 86.099231,74.016631 86.415321,74.081391 C 86.731441,74.146191 86.688181,74.118581 87.022921,74.225681 C 87.357641,74.332761 87.435281,74.389881 87.754261,74.509731 C 88.073231,74.629581 88.001011,74.575911 88.298851,74.705051 C 88.596681,74.834251 88.627621,74.869191 88.945561,75.026411 C 89.263521,75.183601 89.288141,75.168891 89.570671,75.333931 C 89.853231,75.498981 89.792751,75.498411 90.075751,75.686561 C 90.358751,75.874731 90.452141,75.919101 90.702721,76.086561 C 90.953301,76.254031 90.893841,76.216091 91.078081,76.356451 C 91.262311,76.496791 91.235271,76.479551 91.439641,76.647941 C 91.644011,76.816341 91.629281,76.791761 91.895511,77.030031 C 92.161741,77.268321 92.308141,77.384541 92.504591,77.601121 C 92.701011,77.817671 92.964281,78.084481 93.276551,78.489041 C 93.588821,78.893551 93.553411,78.901401 93.753661,79.219271 C 93.953911,79.537151 93.901341,79.488421 94.077571,79.760541 C 94.253791,80.032641 94.266551,80.048381 94.430931,80.350981 C 94.595301,80.653571 94.599231,80.671261 94.735091,80.970881 C 94.870931,81.270501 95.001951,81.506151 95.001951,81.506151 L 99.484081,61.034494 z"/>
  <path stroke="#000" stroke-width="1.38" d="M 147.48005,168.77312 L 131.92212,163.04019 C 131.92212,163.04019 132.07912,163.28834 132.20573,163.48586 C 132.33235,163.68337 132.29183,163.59221 132.42857,163.83024 C 132.56531,164.06827 132.63621,164.20501 132.75269,164.43797 C 132.86917,164.67093 132.82359,164.5899 132.89449,164.76209 C 132.96539,164.93428 132.95021,164.91403 133.0363,165.12673 C 133.12239,165.33944 133.14771,165.37489 133.23888,165.61292 C 133.33004,165.85095 133.33004,165.81043 133.40094,166.07885 C 133.47183,166.34726 133.46678,166.42323 133.52248,166.68658 C 133.57819,166.94993 133.58326,166.87903 133.62377,167.13225 C 133.66429,167.38547 133.65416,167.42092 133.68455,167.69946 C 133.71493,167.97801 133.73519,167.98814 133.74532,168.24642 C 133.75545,168.50471 133.73012,168.46419 133.72506,168.73261 C 133.72,169.00102 133.73012,169.08205 133.72506,169.32008 C 133.72,169.55811 133.72,169.5024 133.7048,169.68472 C 133.68961,169.86704 133.68961,169.84172 133.66429,170.04936 C 133.63896,170.257 133.6491,170.23674 133.60352,170.51529 C 133.55794,170.79383 133.54274,170.9407 133.48197,171.16353 C 133.4212,171.38637 133.35536,171.67504 133.21861,172.05487 C 133.08188,172.43471 133.06162,172.41445 132.93502,172.68286 C 132.8084,172.95128 132.81853,172.89557 132.71217,173.12853 C 132.60583,173.3615 132.60076,173.37669 132.46908,173.61472 C 132.33741,173.85275 132.32728,173.86288 132.18548,174.08065 C 132.04367,174.29842 131.94239,174.4858 131.94239,174.4858 L 147.48005,168.77312 z"/>
</svg>
